<svg width="24" height="24" viewBox="0 0 24 24" fill="none" xmlns="http://www.w3.org/2000/svg">
<path d="M5.5 11C5.5 10.7239 5.27614 10.5 5 10.5C4.72386 10.5 4.5 10.7239 4.5 11L4.5 18C4.5 18.2761 4.72386 18.5 5 18.5C5.27614 18.5 5.5 18.2761 5.5 18L5.5 11Z" fill="#B45309"/>
<path d="M9 11.5C9.27614 11.5 9.5 11.7239 9.5 12V19C9.5 19.2761 9.27614 19.5 9 19.5C8.72386 19.5 8.5 19.2761 8.5 19V12C8.5 11.7239 8.72386 11.5 9 11.5Z" fill="#B45309"/>
<path d="M13.5 11C13.5 10.7239 13.2761 10.5 13 10.5C12.7239 10.5 12.5 10.7239 12.5 11V18C12.5 18.2761 12.7239 18.5 13 18.5C13.2761 18.5 13.5 18.2761 13.5 18V11Z" fill="#B45309"/>
<path fill-rule="evenodd" clip-rule="evenodd" d="M0 5C0 4.19711 0.437492 3.55194 0.965273 3.08401C1.49422 2.61504 2.20256 2.2384 2.99202 1.94235C4.57833 1.34749 6.70269 1 9 1C11.2973 1 13.4217 1.34749 15.008 1.94235C15.7974 2.2384 16.5058 2.61504 17.0347 3.08401C17.5625 3.55194 18 4.19711 18 5V7H19C21.2091 7 23 8.79086 23 11V15C23 17.2091 21.2091 19 19 19H18V20C18 20.8029 17.5625 21.4481 17.0347 21.916C16.5058 22.385 15.7974 22.7616 15.008 23.0576C13.4217 23.6525 11.2973 24 9 24C6.70269 24 4.57833 23.6525 2.99202 23.0576C2.20256 22.7616 1.49422 22.385 0.965273 21.916C0.437492 21.4481 0 20.8029 0 20V5ZM2 5C2 4.97447 2.01022 4.83042 2.29209 4.58052C2.57279 4.33166 3.03602 4.06185 3.69427 3.81501C5.0034 3.32409 6.87903 3 9 3C11.121 3 12.9966 3.32409 14.3057 3.81501C14.964 4.06185 15.4272 4.33166 15.7079 4.58052C15.9898 4.83042 16 4.97447 16 5C16 5.02553 15.9898 5.16958 15.7079 5.41948C15.4272 5.66834 14.964 5.93815 14.3057 6.18499C12.9966 6.67591 11.121 7 9 7C6.87903 7 5.0034 6.67591 3.69427 6.18499C3.03602 5.93815 2.57279 5.66834 2.29209 5.41948C2.01022 5.16958 2 5.02553 2 5ZM18 17V9H19C20.1046 9 21 9.89543 21 11V15C21 16.1046 20.1046 17 19 17H18ZM15.008 8.05765C15.3574 7.92662 15.6909 7.77981 16 7.61619V20C16 20.0255 15.9898 20.1696 15.7079 20.4195C15.4272 20.6683 14.964 20.9381 14.3057 21.185C12.9966 21.6759 11.121 22 9 22C6.87903 22 5.0034 21.6759 3.69427 21.185C3.03602 20.9381 2.57279 20.6683 2.29209 20.4195C2.01022 20.1696 2 20.0255 2 20V7.61619C2.3091 7.77981 2.64262 7.92662 2.99202 8.05765C4.57833 8.65251 6.70269 9 9 9C11.2973 9 13.4217 8.65251 15.008 8.05765Z" fill="#B45309"/>
</svg>
