<svg width="24" height="24" viewBox="0 0 24 24" fill="none" xmlns="http://www.w3.org/2000/svg">
<path fill-rule="evenodd" clip-rule="evenodd" d="M5.32108 4.19228C3.89644 4.90261 3.2343 5.82424 3.05404 6.78725C3.03712 6.87765 3.06443 7.06133 3.26719 7.27969L4.24825 8.33622C4.84543 8.97933 5.13105 9.85169 5.02986 10.7235L3.96651 19.8847C3.89756 20.4787 4.36187 21 4.95984 21H19.0401C19.6381 21 20.1024 20.4787 20.0335 19.8847L18.9701 10.7235C18.8689 9.85169 19.1545 8.97933 19.7517 8.33622L20.7328 7.27969C20.9355 7.06133 20.9628 6.87765 20.9459 6.78725C20.7657 5.82424 20.1035 4.90261 18.6789 4.19228C17.2315 3.47061 15.0455 3 12 3C8.95442 3 6.76844 3.47061 5.32108 4.19228ZM4.42864 2.40243C6.25462 1.49198 8.78244 1 12 1C15.2175 1 17.7453 1.49198 19.5713 2.40243C21.42 3.32421 22.5908 4.70421 22.9118 6.41929C23.0806 7.32131 22.6826 8.11909 22.1984 8.64059L21.2173 9.69712C21.0182 9.91149 20.923 10.2023 20.9568 10.4929L22.0201 19.6541C22.227 21.4361 20.834 23 19.0401 23H4.95984C3.16593 23 1.77301 21.4361 1.97984 19.6541L3.0432 10.4929C3.07693 10.2023 2.98172 9.91149 2.78267 9.69712L1.8016 8.64059C1.31735 8.11909 0.919346 7.32131 1.08818 6.41929C1.40921 4.70421 2.57994 3.32421 4.42864 2.40243Z" fill="#DC2626"/>
</svg>
