<svg width="24" height="24" viewBox="0 0 24 24" fill="none" xmlns="http://www.w3.org/2000/svg">
<path fill-rule="evenodd" clip-rule="evenodd" d="M12 2C9.76956 2 8 3.76218 8 5.88889C8 8.0156 9.76956 9.77778 12 9.77778C14.2304 9.77778 16 8.0156 16 5.88889C16 3.76218 14.2304 2 12 2ZM6 5.88889C6 2.61548 8.7076 0 12 0C15.2924 0 18 2.61548 18 5.88889C18 9.1623 15.2924 11.7778 12 11.7778C8.7076 11.7778 6 9.1623 6 5.88889ZM2.76535 16.3836C3.8922 15.2818 5.41586 14.6667 7 14.6667H17C18.5841 14.6667 20.1078 15.2818 21.2346 16.3836C22.3623 17.4861 23 18.9864 23 20.5556V23C23 23.5523 22.5523 24 22 24C21.4477 24 21 23.5523 21 23V20.5556C21 19.5315 20.5842 18.5447 19.8364 17.8136C19.0879 17.0817 18.068 16.6667 17 16.6667H7C5.93197 16.6667 4.91209 17.0817 4.16358 17.8136C3.41584 18.5447 3 19.5315 3 20.5556V23C3 23.5523 2.55228 24 2 24C1.44772 24 1 23.5523 1 23V20.5556C1 18.9864 1.63773 17.4861 2.76535 16.3836Z" fill="#525252"/>
</svg>
