<svg width="24" height="24" viewBox="0 0 24 24" fill="none" xmlns="http://www.w3.org/2000/svg">
<path fill-rule="evenodd" clip-rule="evenodd" d="M15.4188 1.18628C15.8165 0.902148 16.3614 0.947245 16.7071 1.29291L19.2071 3.79291C19.2606 3.84642 19.3079 3.90584 19.348 3.97001L21.7339 7.78741L23.0547 8.66796C23.3329 8.85343 23.5 9.16566 23.5 9.50001V14C23.5 14.1553 23.4639 14.3084 23.3944 14.4472L20.3944 20.4472C20.1965 20.843 19.762 21.0617 19.3262 20.9848L11.0758 19.5288L8.31623 20.4487C7.99442 20.556 7.64018 20.4928 7.37531 20.2809L5.22397 18.5598L2.6644 18.9864C2.1928 19.065 1.73154 18.7988 1.56367 18.3511L0.0636708 14.3511C0.0215669 14.2389 0 14.1199 0 14V11.5C0 11.2081 0.127563 10.9307 0.349209 10.7408L3.5 8.04008V6.50001C3.5 6.25779 3.58792 6.0238 3.74742 5.84151L7.24742 1.84151C7.536 1.51171 8.00568 1.40822 8.40614 1.5862L12.3839 3.35407L15.4188 1.18628ZM15.8919 3.30613L13.0812 5.31375C12.7931 5.51959 12.4175 5.55766 12.0939 5.41382L8.26729 3.71313L5.5 6.87575V8.50001C5.5 8.79194 5.37244 9.06929 5.15079 9.25927L2 11.9599V13.8187L3.14737 16.8783L5.3356 16.5136C5.61589 16.4669 5.90281 16.5416 6.12469 16.7191L8.19988 18.3793L10.6838 17.5513C10.8416 17.4987 11.01 17.4863 11.1738 17.5152L18.9392 18.8856L21.5 13.7639V10.0352L20.4453 9.33206C20.3272 9.25333 20.2272 9.15037 20.152 9.03001L17.7124 5.12659L15.8919 3.30613Z" fill="#DC2626"/>
</svg>
