<svg width="24" height="24" viewBox="0 0 24 24" fill="none" xmlns="http://www.w3.org/2000/svg">
<path fill-rule="evenodd" clip-rule="evenodd" d="M17 24C16.4477 24 16 23.5523 16 23V1.0014C16 1.00093 16 1.00046 16 0.999998C16 0.447714 16.4477 0 17 0C19.7614 0 22 2.23858 22 5V13C22 13.5523 21.5523 14 21 14H18V23C18 23.5523 17.5523 24 17 24ZM20 5C20 4.99977 20 5.00023 20 5V12H18V2.17071C19.1652 2.58254 20 3.69378 20 5Z" fill="#DC2626"/>
<path d="M6 9C7.10457 9 8 8.10457 8 7V1C8 0.447715 8.44771 0 9 0C9.55229 0 10 0.447715 10 1V7C10 8.86384 8.72523 10.4299 7 10.874L7 23C7 23.5523 6.55229 24 6 24C5.44772 24 5 23.5523 5 23V10.874C3.27477 10.4299 2 8.86384 2 7V1C2 0.447715 2.44772 0 3 0C3.55228 0 4 0.447715 4 1V7C4 8.10457 4.89543 9 6 9Z" fill="#DC2626"/>
<path d="M6 8C5.44772 8 5 7.55228 5 7V1C5 0.447715 5.44772 0 6 0C6.55229 0 7 0.447715 7 1V7C7 7.55228 6.55229 8 6 8Z" fill="#DC2626"/>
</svg>
