<svg width="24" height="24" viewBox="0 0 24 24" fill="none" xmlns="http://www.w3.org/2000/svg">
<path fill-rule="evenodd" clip-rule="evenodd" d="M18.4744 3.15801C18.5617 2.89603 18.4201 2.61287 18.1581 2.52555C17.8962 2.43823 17.613 2.57981 17.5257 2.84178L17.1396 3.99996H17.1385L16.6957 3.73426C15.579 3.06428 14.1977 4.03775 14.453 5.31468L14.4572 5.33563L13.7929 5.99996H9.16479C9.03131 5.93717 8.87429 5.93577 8.73835 5.99996H7C6.87333 5.99996 6.74788 6.0052 6.62386 6.01546C6.58425 6.00537 6.54275 6 6.5 6H5C2.51472 6 0.5 8.01472 0.5 10.5V13.5C0.5 13.7761 0.723858 14 1 14C1.27614 14 1.5 13.7761 1.5 13.5V10.5C1.5 8.91396 2.55496 7.57432 4.00145 7.14451C3.07998 7.96853 2.5 9.16652 2.5 10.5V20.5C2.5 20.7761 2.72386 21 3 21H4.5C4.75477 21 4.96881 20.8084 4.99694 20.5552L5.45455 16.4367C5.66414 16.3806 5.86741 16.2914 6.05532 16.187C6.16425 16.1265 6.27205 16.0587 6.37762 15.9848L6.37873 15.9851C6.41931 15.9953 6.45973 16.0049 6.5 16.0139V17C6.5 17.2761 6.72386 17.5 7 17.5C7.27614 17.5 7.5 17.2761 7.5 17V16.1301C7.91133 16.1316 8.30282 16.0737 8.67305 15.9643L9.05277 16.7237C9.17627 16.9707 9.47661 17.0708 9.72359 16.9473C9.97058 16.8238 10.0707 16.5235 9.9472 16.2765L9.59184 15.5658C9.95541 15.3542 10.2868 15.0921 10.5871 14.7942L11.1464 15.3536C11.3417 15.5488 11.6583 15.5488 11.8536 15.3536C12.0488 15.1583 12.0488 14.8417 11.8536 14.6464L11.2387 14.0316L11.2617 14H11.4856C11.4954 14.0003 11.5053 14.0003 11.5152 14H13.5958L15.0111 20.6047C15.0605 20.8353 15.2642 21 15.5 21H16.5C16.7761 21 17 20.7761 17 20.5V14.0095C17.0001 14.003 17.0001 13.9965 17 13.9899V13.6434L19.3008 9.96207L22.5707 9.49494C22.7192 9.47373 22.8507 9.38625 22.9283 9.25789L22.929 9.25684L22.9308 9.25376L22.9367 9.2438L22.9567 9.20943C22.9733 9.1804 22.9964 9.13929 23.0236 9.08841C23.0779 8.98712 23.1501 8.84476 23.2215 8.68016C23.3548 8.37291 23.5232 7.90547 23.4992 7.4724C23.4879 7.2676 23.3527 7.09048 23.1581 7.02562C22.5118 6.81018 21.9516 6.36945 21.5411 5.95891C21.3387 5.7566 21.1798 5.56868 21.0721 5.43233C21.0184 5.36433 20.9779 5.30963 20.9515 5.27299C20.9383 5.25469 20.9286 5.24093 20.9227 5.23233L20.9165 5.22337L20.9156 5.22198C20.8674 5.14987 20.8012 5.09155 20.7236 5.05275L18.7236 4.05275C18.6542 4.01804 18.5776 3.99996 18.5 3.99996H18.1937L18.4744 3.15801ZM22.5 8.99996C22.9279 9.25862 22.9283 9.25797 22.9283 9.25789L22.5 8.99996ZM16 13.6911V13.5C16 13.4063 16.0263 13.3144 16.076 13.235L17.3751 11.1564L16.4211 10.4409C16.2591 10.3194 16.0283 10.359 15.916 10.5274C15.4853 11.1736 14.6001 11.3252 13.9789 10.8592L13.3198 10.3649C13.1373 10.2281 12.8855 10.232 12.7074 10.3745L11.4436 11.3855C11.2595 11.5328 11.2033 11.7887 11.3087 11.9995L11.809 13H14C14.2358 13 14.4395 13.1647 14.4889 13.3952L14.6924 14.3449L16 13.6911ZM14.9088 15.3547L15.9042 20H16V14.8091L14.9088 15.3547ZM17.0211 9.64091L17.907 10.3053L18.576 9.23496C18.6541 9.10998 18.7834 9.02583 18.9293 9.00499L22.1819 8.54033C22.2193 8.46724 22.2621 8.379 22.3041 8.28217C22.373 8.12322 22.4288 7.96611 22.4632 7.82637C21.7832 7.52148 21.2276 7.05969 20.8339 6.66602C20.5988 6.43083 20.414 6.2125 20.2872 6.05197C20.2376 5.98904 20.1966 5.93469 20.1647 5.89135L18.382 4.99996H17.508H17.4922H17C16.9094 4.99996 16.8205 4.97534 16.7428 4.92871L16.1812 4.59175C15.8089 4.36843 15.3485 4.69292 15.4336 5.11856L15.4903 5.40191C15.5231 5.56584 15.4718 5.73531 15.3536 5.85352L14.3536 6.85352C14.2598 6.94729 14.1326 6.99996 14 6.99996H9.07445L7.42833 8.36465C7.24682 8.51513 7.1951 8.77195 7.3042 8.98095L7.63132 9.6076C7.9301 10.18 7.8291 10.8793 7.3806 11.3437L6.77946 11.9662C6.43107 12.327 5.92542 12.4898 5.43199 12.4L3.5 12.0486V20H4.05248L4.50306 15.9447C4.53119 15.6915 4.74523 15.5 5 15.5C5.1334 15.5 5.32902 15.4466 5.56968 15.3129C5.80419 15.1826 6.04894 14.9939 6.27145 14.7714C6.49395 14.5489 6.68264 14.3042 6.81292 14.0696C6.94662 13.829 7 13.6334 7 13.5C7 13.2238 7.22386 13 7.5 13H10.6909L10.4143 12.4468C10.098 11.8141 10.2666 11.0465 10.8189 10.6046L12.0827 9.59359C12.6169 9.16626 13.3725 9.15445 13.9198 9.56489L14.5789 10.0592C14.7409 10.1807 14.9717 10.1412 15.084 9.97272C15.5147 9.32658 16.3999 9.17497 17.0211 9.64091ZM7.92406 14H9.96577C9.64296 14.3364 9.28736 14.6099 8.90139 14.8028C8.43021 15.0384 7.89921 15.1619 7.29945 15.1231C7.44689 14.9416 7.57875 14.7503 7.68708 14.5553C7.78391 14.381 7.86764 14.1935 7.92406 14ZM6.7901 7.5948L7.50761 6.99996H7C5.067 6.99996 3.5 8.56697 3.5 10.5V11.049C3.54221 11.0457 3.58554 11.0477 3.62916 11.0557L5.61096 11.4162C5.77544 11.4461 5.94399 11.3918 6.06012 11.2716L6.66126 10.6491C6.81076 10.4943 6.84443 10.2611 6.74483 10.0704L6.41771 9.44371C6.0904 8.81669 6.24558 8.04623 6.7901 7.5948ZM20 6.5C20 6.77614 19.7761 7 19.5 7C19.2239 7 19 6.77614 19 6.5C19 6.22386 19.2239 6 19.5 6C19.7761 6 20 6.22386 20 6.5Z" fill="#44403C"/>
</svg>
