<svg width="24" height="24" viewBox="0 0 24 24" fill="none" xmlns="http://www.w3.org/2000/svg">
<path fill-rule="evenodd" clip-rule="evenodd" d="M12.6591 2.24793L12 3.00003L11.3409 2.24793L12 1.67041L12.6591 2.24793ZM12 4.3716C11.8846 4.48446 11.7569 4.61147 11.6189 4.75161C10.9828 5.39792 10.136 6.31757 9.29155 7.41138C7.56736 9.6447 6 12.4175 6 15C6 18.3137 8.68629 21 12 21C15.3137 21 18 18.3137 18 15C18 12.4175 16.4326 9.6447 14.7084 7.41138C13.864 6.31757 13.0172 5.39792 12.3811 4.75161C12.2431 4.61147 12.1154 4.48446 12 4.3716ZM11.3409 2.24793C11.3412 2.24773 11.3409 2.24793 12 3.00003C12.6591 2.24793 12.6588 2.24773 12.6591 2.24793L12.6617 2.25028L12.6669 2.25487L12.6848 2.27073C12.7 2.28424 12.7216 2.3036 12.7493 2.32861C12.8046 2.37863 12.8841 2.45129 12.9842 2.54502C13.1844 2.73243 13.4677 3.00448 13.8064 3.34863C14.4828 4.03576 15.386 5.01623 16.2916 6.18918C18.0674 8.48936 20 11.7166 20 15C20 19.4183 16.4183 23 12 23C7.58172 23 4 19.4183 4 15C4 11.7166 5.93264 8.48936 7.70845 6.18918C8.61399 5.01623 9.51723 4.03576 10.1936 3.34863C10.5323 3.00448 10.8156 2.73243 11.0158 2.54502C11.1159 2.45129 11.1954 2.37863 11.2507 2.32861C11.2784 2.3036 11.3 2.28424 11.3152 2.27073L11.3331 2.25487L11.3383 2.25028L11.3409 2.24793Z" fill="#9F1239"/>
</svg>
