<svg width="24" height="24" viewBox="0 0 24 24" fill="none" xmlns="http://www.w3.org/2000/svg">
<path d="M15 10C16.1046 10 17 9.10457 17 8C17 6.89543 16.1046 6 15 6C13.8954 6 13 6.89543 13 8C13 9.10457 13.8954 10 15 10Z" fill="#DC2626"/>
<path fill-rule="evenodd" clip-rule="evenodd" d="M4 3H20V21H4V15.5165C3.99984 15.5061 3.99984 15.4957 4 15.4853V3ZM6 16.0764V19H18V15.3966C17.6645 15.5571 17.2891 15.7214 16.8933 15.872C16.0294 16.2009 14.9793 16.5 14 16.5C12.6465 16.5 11.5202 15.6784 10.7954 14.9622C10.288 14.4609 9.73188 14.3427 9.37085 14.488C8.36717 14.8922 7.12502 15.4468 6 16.0764ZM18 13.134L17.9855 13.1425C17.6168 13.3637 16.9448 13.7124 16.1817 14.0029C15.404 14.299 14.6207 14.5 14 14.5C13.4442 14.5 12.8035 14.1348 12.2011 13.5396C11.375 12.7232 10.0018 12.0779 8.62377 12.6328C7.85197 12.9436 6.92634 13.3467 6 13.8133V10.5H8.04587C9.14405 10.5 10.0921 9.84711 10.558 9.05997C10.7967 8.65668 10.958 8.13385 10.8575 7.5786C10.7503 6.98626 10.3724 6.51151 9.82642 6.21807C9.61749 6.10577 9.35785 6.01252 9.06077 6.00116C9.04463 5.99007 9.01956 5.9711 8.98468 5.94009C8.87023 5.83836 8.76263 5.71386 8.60212 5.52814C8.55353 5.47191 8.50004 5.41002 8.44008 5.3415C8.35114 5.23986 8.24736 5.12235 8.12754 5H18V13.134ZM6 6V8.5H8.04587C8.36261 8.5 8.69126 8.28728 8.83681 8.04134C8.84712 8.02393 8.85532 8.00835 8.86185 7.99461C8.32373 7.95239 7.92078 7.67032 7.65595 7.43491C7.43208 7.23592 7.2109 6.97875 7.03957 6.77954C7.00216 6.73605 6.96709 6.69526 6.93492 6.6585C6.48687 6.14644 6.25591 6 6 6Z" fill="#DC2626"/>
<path fill-rule="evenodd" clip-rule="evenodd" d="M1 0H23V24H1V0ZM3 2V22H21V2H3Z" fill="#DC2626"/>
</svg>
