<svg width="24" height="24" viewBox="0 0 24 24" fill="none" xmlns="http://www.w3.org/2000/svg">
<path fill-rule="evenodd" clip-rule="evenodd" d="M1.99999 1H22V23H1.99999V1ZM3.99999 3V21H20V3H3.99999Z" fill="#DC2626"/>
<path fill-rule="evenodd" clip-rule="evenodd" d="M10.1659 14.9009C9.71614 14.4328 9.18144 14.3099 8.81462 14.4464C7.31344 15.005 5.23747 15.8726 3.49635 16.8681C3.0169 17.1422 2.406 16.9758 2.13187 16.4964C1.85774 16.0169 2.02418 15.406 2.50363 15.1319C4.37866 14.0598 6.56786 13.1485 8.11711 12.5719C9.45743 12.0732 10.7956 12.6697 11.608 13.5151C12.4137 14.3536 13.4028 15 14.3333 15C15.1698 15 16.1964 14.7446 17.1876 14.385C18.1652 14.0303 19.0264 13.6048 19.5036 13.3319C19.9831 13.0578 20.594 13.2242 20.8681 13.7036C21.1422 14.1831 20.9758 14.794 20.4963 15.0681C19.9242 15.3952 18.9594 15.8697 17.8697 16.265C16.7937 16.6554 15.5116 17 14.3333 17C12.5631 17 11.0776 15.8496 10.1659 14.9009Z" fill="#DC2626"/>
<path d="M18 7.5C18 8.88071 16.8807 10 15.5 10C14.1193 10 13 8.88071 13 7.5C13 6.11929 14.1193 5 15.5 5C16.8807 5 18 6.11929 18 7.5Z" fill="#DC2626"/>
<path fill-rule="evenodd" clip-rule="evenodd" d="M3.63635 3C3.63635 2.44772 4.08407 2 4.63635 2C6.10476 2 7.01338 3.04791 7.55158 3.69229C7.62257 3.77727 7.68742 3.85592 7.74767 3.92899C7.9562 4.18188 8.10959 4.36789 8.27097 4.51817C8.38656 4.62581 8.44901 4.65829 8.4696 4.66673C8.9388 4.67083 9.3324 4.86582 9.62317 5.07292C9.9206 5.28477 10.1797 5.55784 10.3986 5.83118C11.1324 6.74748 11.0731 7.85334 10.5567 8.67191C10.0594 9.46031 9.1411 10 8.0957 10H3.99999C3.4477 10 2.99999 9.55228 2.99999 9C2.99999 8.44772 3.4477 8 3.99999 8H8.0957C8.45179 8 8.73273 7.81479 8.8652 7.60481C8.9287 7.50415 8.94915 7.41319 8.94723 7.34228C8.94551 7.2787 8.92552 7.1913 8.83752 7.08142C8.68471 6.89063 8.55685 6.76888 8.46287 6.70194C8.43713 6.68361 8.4184 6.6725 8.40635 6.66607C7.73807 6.6495 7.23974 6.29077 6.90799 5.98183C6.63967 5.73197 6.37574 5.4107 6.15723 5.1447C6.10787 5.08462 6.06083 5.02736 6.01657 4.97438C5.44114 4.28542 5.07704 4 4.63635 4C4.08407 4 3.63635 3.55228 3.63635 3ZM8.3898 6.65826C8.3898 6.65824 8.39027 6.65839 8.39121 6.65877Z" fill="#DC2626"/>
</svg>
