<svg width="24" height="24" viewBox="0 0 24 24" fill="none" xmlns="http://www.w3.org/2000/svg">
<path fill-rule="evenodd" clip-rule="evenodd" d="M7 6C6.70808 6 6.43073 6.12756 6.24074 6.34921L3.421 9.63891L0.683772 10.5513C0.27543 10.6874 0 11.0696 0 11.5V17C0 17.5523 0.447715 18 1 18H3.17071C3.58254 19.1652 4.69378 20 6 20C7.30622 20 8.41746 19.1652 8.82929 18H15.1707C15.5825 19.1652 16.6938 20 18 20C19.3062 20 20.4175 19.1652 20.8293 18H23C23.5523 18 24 17.5523 24 17V12.5C24 12.0911 23.751 11.7234 23.3714 11.5715L18.53 9.63495L14.6585 6.24742C14.4762 6.08792 14.2422 6 14 6H7ZM22 16V13.177L17.6286 11.4285C17.5237 11.3865 17.4266 11.327 17.3415 11.2526L13.6243 8H7.45994L4.75926 11.1508C4.6413 11.2884 4.48817 11.3914 4.31623 11.4487L2 12.2208V16H3.17071C3.58254 14.8348 4.69378 14 6 14C7.30622 14 8.41746 14.8348 8.82929 16H15.1707C15.5825 14.8348 16.6938 14 18 14C19.3062 14 20.4175 14.8348 20.8293 16H22ZM6 16C5.44772 16 5 16.4477 5 17C5 17.5523 5.44772 18 6 18C6.55228 18 7 17.5523 7 17C7 16.4477 6.55228 16 6 16ZM18 16C18.5523 16 19 16.4477 19 17C19 17.5523 18.5523 18 18 18C17.4477 18 17 17.5523 17 17C17 16.4477 17.4477 16 18 16Z" fill="#4B5563"/>
</svg>
