<svg width="24" height="24" viewBox="0 0 24 24" fill="none" xmlns="http://www.w3.org/2000/svg">
<g clip-path="url(#clip0_215_1097)">
<path fill-rule="evenodd" clip-rule="evenodd" d="M13.5121 0.0839896C13.9182 0.261743 14.1588 0.685573 14.1032 1.12532L13.1342 8.80005H22C22.3889 8.80005 22.7425 9.02554 22.9066 9.37814C23.0707 9.73074 23.0155 10.1465 22.765 10.444L11.6539 23.644C11.3685 23.9831 10.8939 24.0939 10.4879 23.9161C10.0818 23.7384 9.84124 23.3145 9.89676 22.8748L10.8658 15.2001H2C1.61109 15.2001 1.25745 14.9746 1.09336 14.622C0.929274 14.2694 0.984502 13.8536 1.23495 13.5561L12.3461 0.356077C12.6315 0.0169778 13.1061 -0.0937637 13.5121 0.0839896ZM4.14886 13.2001H12C12.287 13.2001 12.5603 13.3234 12.7501 13.5387C12.9399 13.754 13.0281 14.0405 12.9921 14.3253L12.3054 19.7644L19.8511 10.8001H12C11.713 10.8001 11.4397 10.6767 11.2499 10.4614C11.0601 10.2461 10.9719 9.95957 11.0079 9.67479L11.6946 4.23568L4.14886 13.2001Z" fill="#DC2626"/>
</g>
<defs>
<clipPath id="clip0_215_1097">
<rect width="24" height="24" fill="white"/>
</clipPath>
</defs>
</svg>
