<svg width="24" height="24" viewBox="0 0 24 24" fill="none" xmlns="http://www.w3.org/2000/svg">
<g clip-path="url(#clip0_405_1210)">
<path d="M16.7552 5.58074C17.1457 5.19022 17.1457 4.55705 16.7552 4.16653C16.3647 3.77601 15.7315 3.77601 15.341 4.16653C14.9505 4.55705 14.9505 5.19022 15.341 5.58074C15.7315 5.97127 16.3647 5.97127 16.7552 5.58074Z" fill="#0891B2"/>
<path fill-rule="evenodd" clip-rule="evenodd" d="M8.97703 3.45925C6.5132 5.92308 5.87646 9.30586 5.83965 11.2576L0.847732 13.1295C0.529381 13.2489 0.293498 13.5219 0.22152 13.8542C0.149543 14.1864 0.251333 14.5325 0.491748 14.773L8.97703 23.2582C9.21744 23.4987 9.56354 23.6004 9.89584 23.5285C10.2281 23.4565 10.5011 23.2206 10.6205 22.9023L12.4924 17.9103C14.4441 17.8735 17.8269 17.2368 20.2907 14.773C23.8243 11.2394 24.1252 6.92581 23.0391 1.49537C22.9599 1.09951 22.6505 0.790075 22.2546 0.710902C16.8242 -0.375186 12.5106 -0.0742838 8.97703 3.45925ZM7.85276 11.8678C7.74751 10.4996 8.12787 7.13684 10.3912 4.87346C13.0999 2.16485 16.3892 1.67629 21.2035 2.54649C22.0737 7.3608 21.5851 10.6501 18.8765 13.3587C16.6131 15.6221 13.2504 16.0025 11.8822 15.8972C11.4384 15.8631 11.0254 16.1264 10.8691 16.5432L9.2931 20.7459L3.0041 14.4569L7.20683 12.8809C7.6236 12.7246 7.8869 12.3116 7.85276 11.8678Z" fill="#0891B2"/>
</g>
<defs>
<clipPath id="clip0_405_1210">
<rect width="24" height="24" fill="white"/>
</clipPath>
</defs>
</svg>
