<svg width="24" height="24" viewBox="0 0 24 24" fill="none" xmlns="http://www.w3.org/2000/svg">
<path fill-rule="evenodd" clip-rule="evenodd" d="M10.9916 7.20801C11.3444 6.77475 11.9838 6.71462 12.4111 7.07453L13.1665 7.71058C14.1285 8.52068 15.5387 8.50366 16.4809 7.67059C16.7321 7.44853 17.123 7.50843 17.2962 7.79548L19.2291 11H3.88701L5.23211 9.01776C5.4997 8.6234 6.00841 8.47268 6.44764 8.65762L6.88104 8.84011C8.10879 9.35706 9.53038 9.00247 10.3715 7.96948L10.9916 7.20801ZM1.47002 11L3.57715 7.89475C4.37995 6.71169 5.90607 6.25954 7.22375 6.81435L7.65716 6.99684C8.06641 7.16916 8.54027 7.05096 8.82065 6.70663L9.44071 5.94516C10.4991 4.64536 12.4173 4.46499 13.6994 5.54471L14.4547 6.18076C14.6583 6.35218 14.9567 6.34858 15.1561 6.1723C16.3429 5.12292 18.1905 5.40597 19.0088 6.7625L21.5647 11H23C23.5523 11 24 11.4477 24 12C24 16.8421 21.1321 21.0123 17.0066 22.9086C16.8756 22.9688 16.7331 23 16.589 23H7.41103C7.26685 23 7.12438 22.9688 6.99338 22.9086C2.86787 21.0123 0 16.8421 0 12C0 11.4477 0.447715 11 1 11H1.47002ZM20.9902 13C20.9974 13.0001 21.0045 13.0001 21.0117 13H21.9506C21.6005 16.527 19.4177 19.5165 16.3647 21H7.63535C4.58231 19.5165 2.39955 16.527 2.04937 13H20.9902Z" fill="#16A34A"/>
</svg>
