<svg width="24" height="24" viewBox="0 0 24 24" fill="none" xmlns="http://www.w3.org/2000/svg">
<path fill-rule="evenodd" clip-rule="evenodd" d="M12 1C12.4332 1 12.8172 1.27896 12.9511 1.69098L15.1962 8.60081H22.4616C22.8948 8.60081 23.2788 8.87977 23.4127 9.2918C23.5465 9.70382 23.3999 10.1552 23.0494 10.4098L17.1716 14.6803L19.4167 21.5902C19.5506 22.0022 19.4039 22.4536 19.0534 22.7082C18.7029 22.9628 18.2283 22.9628 17.8778 22.7082L12 18.4377L6.12214 22.7082C5.77166 22.9628 5.29706 22.9628 4.94657 22.7082C4.59609 22.4536 4.44943 22.0022 4.5833 21.5902L6.82844 14.6803L0.95059 10.4098C0.600103 10.1552 0.453445 9.70382 0.587319 9.2918C0.721193 8.87977 1.10515 8.60081 1.53838 8.60081H8.8038L11.0489 1.69098C11.1828 1.27896 11.5668 1 12 1ZM12 5.23607L10.4814 9.90983C10.3475 10.3219 9.96357 10.6008 9.53034 10.6008H4.61606L8.5918 13.4894C8.94229 13.744 9.08894 14.1954 8.95507 14.6074L7.43647 19.2812L11.4122 16.3926C11.7627 16.138 12.2373 16.138 12.5878 16.3926L16.5635 19.2812L15.0449 14.6074C14.9111 14.1954 15.0577 13.744 15.4082 13.4894L19.3839 10.6008H14.4697C14.0364 10.6008 13.6525 10.3219 13.5186 9.90983L12 5.23607Z" fill="#C026D3"/>
</svg>
