<svg width="24" height="24" viewBox="0 0 24 24" fill="none" xmlns="http://www.w3.org/2000/svg">
<path fill-rule="evenodd" clip-rule="evenodd" d="M5 6C5 4.89543 5.89543 4 7 4H12C13.1046 4 14 4.89543 14 6V9C14 10.1046 13.1046 11 12 11H7C5.89543 11 5 10.1046 5 9V6ZM12 6H7V9H12V6Z" fill="#16A34A"/>
<path fill-rule="evenodd" clip-rule="evenodd" d="M5 1C3.34315 1 2 2.34315 2 4V21H1C0.447715 21 0 21.4477 0 22C0 22.5523 0.447715 23 1 23H18C18.5523 23 19 22.5523 19 22C19 21.4477 18.5523 21 18 21H17V13H17.5V17C17.5 18.1046 18.3954 19 19.5 19H21.5C22.6046 19 23.5 18.1046 23.5 17V9.20002C23.5 8.93596 23.4477 8.67453 23.3462 8.43079L20.9231 2.6154C20.7107 2.1056 20.1252 1.86452 19.6154 2.07694C19.1056 2.28936 18.8645 2.87483 19.0769 3.38463L20.0875 5.81L18.7474 7.34151C18.3837 7.75715 18.4259 8.38891 18.8415 8.75259C19.2571 9.11628 19.8889 9.07416 20.2526 8.65852L20.9448 7.86745L21.5 9.20002V17H19.5V13C19.5 11.8954 18.6046 11 17.5 11H17V4C17 2.34315 15.6569 1 14 1H5ZM15 4C15 3.44772 14.5523 3 14 3H5C4.44772 3 4 3.44772 4 4V21H15V4Z" fill="#16A34A"/>
</svg>
