<svg width="24" height="24" viewBox="0 0 24 24" fill="none" xmlns="http://www.w3.org/2000/svg">
<path d="M12 6H10V8H12V6Z" fill="#16A34A"/>
<path d="M8 0H6V2H8V0Z" fill="#16A34A"/>
<path d="M11 16H9V18H11V16Z" fill="#16A34A"/>
<path d="M19 8H17V10H19V8Z" fill="#16A34A"/>
<path d="M16 19H14V21H16V19Z" fill="#16A34A"/>
<path d="M22 3H20V5H22V3Z" fill="#16A34A"/>
<path d="M9 21H7V23H9V21Z" fill="#16A34A"/>
<path d="M15 2H13V4H15V2Z" fill="#16A34A"/>
<path d="M6 11H4V13H6V11Z" fill="#16A34A"/>
<path d="M3 18H1V20H3V18Z" fill="#16A34A"/>
<path d="M3 4H1V6H3V4Z" fill="#16A34A"/>
<path d="M23 15H21V17H23V15Z" fill="#16A34A"/>
<path d="M20 22H18V24H20V22Z" fill="#16A34A"/>
<path d="M15 12H13V14H15V12Z" fill="#16A34A"/>
<path d="M10 10H8V12H10V10Z" fill="#16A34A"/>
</svg>
