<svg width="24" height="24" viewBox="0 0 24 24" fill="none" xmlns="http://www.w3.org/2000/svg">
<g clip-path="url(#clip0_610_1202)">
<path fill-rule="evenodd" clip-rule="evenodd" d="M6.4008 3.08226L6.62627 2H21.5404L18.9174 14.5905L5.41024 7.83698L5.9789 5.10738L13.5528 8.89432C14.0468 9.14131 14.6474 8.94109 14.8944 8.44711C15.1414 7.95313 14.9412 7.35246 14.4472 7.10547L6.4008 3.08226ZM4.98834 9.86209L18.4955 16.6157L17.9268 19.3453L9.44719 15.1055C8.95321 14.8586 8.35254 15.0588 8.10555 15.5528C7.85856 16.0467 8.05878 16.6474 8.55276 16.8944L17.5049 21.3705L17.3737 22H2.45961L4.98834 9.86209ZM0 24L5 0H24L19 24H0Z" fill="#16A34A"/>
</g>
<defs>
<clipPath id="clip0_610_1202">
<rect width="24" height="24" fill="white" transform="matrix(-1 0 0 1 24 0)"/>
</clipPath>
</defs>
</svg>
