<svg width="24" height="24" viewBox="0 0 24 24" fill="none" xmlns="http://www.w3.org/2000/svg">
<g clip-path="url(#clip0_503_1193)">
<path fill-rule="evenodd" clip-rule="evenodd" d="M11.2929 3.29289C11.4804 3.10536 11.7348 3 12 3H20C20.4169 3 20.79 3.25857 20.9363 3.64888L23.9363 11.6489C24.074 12.0161 23.9844 12.4298 23.7071 12.7071L15.7071 20.7071C15.5196 20.8946 15.2652 21 15 21H1.00001C0.672026 21 0.364895 20.8392 0.17808 20.5696C-0.00873528 20.3 -0.0514847 19.956 0.0636766 19.6489L3.06368 11.6489C3.1138 11.5152 3.19196 11.3938 3.2929 11.2929L11.2929 3.29289ZM12.4142 5L6.41422 11H11.5858L17.5858 5H12.4142ZM19.609 5.80525L13.1624 12.2518L15.391 18.1948L21.8376 11.7482L19.609 5.80525ZM13.557 19L11.307 13H4.69301L2.44301 19H13.557Z" fill="#F59E0B"/>
</g>
<defs>
<clipPath id="clip0_503_1193">
<rect width="24" height="24" fill="white"/>
</clipPath>
</defs>
</svg>
