<svg width="24" height="24" viewBox="0 0 24 24" fill="none" xmlns="http://www.w3.org/2000/svg">
<path fill-rule="evenodd" clip-rule="evenodd" d="M19 0C17.713 0 16.6152 0.810475 16.1893 1.94889C15.6419 1.36489 14.8636 1 14 1C12.3431 1 11 2.34315 11 4C11 4.05788 11.0016 4.11537 11.0049 4.17243C10.6907 4.06078 10.3525 4 10 4C8.34315 4 7 5.34315 7 7C7 7.39025 7.07451 7.76309 7.21009 8.10508C6.50113 8.29808 5.89665 8.74454 5.5 9.34111C4.96254 8.53276 4.04349 8 3 8C1.34315 8 0 9.34315 0 11C0 12.3835 0.936469 13.5482 2.21009 13.8949C2.07452 14.2369 2 14.6098 2 15C2 15.5347 2.13986 16.0366 2.38499 16.4714C1.55209 17.0044 1 17.9377 1 19C1 20.6569 2.34315 22 4 22C4.77785 22 5.48656 21.704 6.0196 21.2184C6.0066 21.4787 6 21.7393 6 22C6 22.5523 6.44772 23 7 23C7.55228 23 8 22.5523 8 22C8 21.7514 8.00689 21.5028 8.02046 21.2542C8.5487 21.7185 9.24148 22 10 22C10.7684 22 11.4692 21.7111 12 21.2361C12.5308 21.7111 13.2316 22 14 22C15.6569 22 17 20.6569 17 19C17 18.6475 16.9392 18.3093 16.8276 17.9951C16.8846 17.9984 16.9421 18 17 18C18.6569 18 20 16.6569 20 15C20 13.9377 19.4479 13.0044 18.615 12.4714C18.8601 12.0366 19 11.5347 19 11C20.6569 11 22 9.65685 22 8C22 6.95651 21.4672 6.03746 20.6589 5.5C21.4672 4.96254 22 4.04349 22 3C22 1.34315 20.6569 0 19 0ZM18 3C18 2.44772 18.4477 2 19 2C19.5523 2 20 2.44772 20 3C20 3.55228 19.5523 4 19 4C18.4477 4 18 3.55228 18 3ZM6.62155 17.5403C6.62332 17.5339 6.62511 17.5274 6.62689 17.521C6.62294 17.5235 6.61897 17.5261 6.615 17.5286C6.61719 17.5325 6.61937 17.5364 6.62155 17.5403ZM7.89303 14.2032C7.87368 14.1328 7.85182 14.0634 7.82756 13.9951C7.88266 13.9982 7.93816 13.9999 7.99401 14C7.95997 14.0675 7.92631 14.1353 7.89303 14.2032ZM12.9175 7.70144C13.2064 7.45518 13.5013 7.21898 13.8014 6.99353C13.5203 6.97516 13.2498 6.91808 12.9951 6.82756C12.9984 6.88463 13 6.94212 13 7C13 7.24154 12.9714 7.47642 12.9175 7.70144ZM16.7407 5.22184C16.7657 5.16581 16.7891 5.10888 16.8107 5.05111C16.8413 5.08378 16.8727 5.11577 16.9047 5.14705C16.85 5.17162 16.7953 5.19655 16.7407 5.22184ZM11 19C11 18.4477 10.5523 18 10 18C9.44772 18 9 18.4477 9 19C9 19.5523 9.44772 20 10 20C10.5523 20 11 19.5523 11 19ZM13 19C13 19.5523 13.4477 20 14 20C14.5523 20 15 19.5523 15 19C15 18.4477 14.5523 18 14 18C13.4477 18 13 18.4477 13 19ZM13.2914 12.2914C13.1046 11.9003 13 11.4624 13 11C13 10.7496 13.0307 10.5063 13.0885 10.2738C12.5513 10.8213 12.0439 11.4092 11.5728 12.0302C11.7123 12.0103 11.855 12 12 12C12.4624 12 12.9003 12.1046 13.2914 12.2914ZM16 8C16 7.96692 16.0005 7.93396 16.0016 7.90114C15.948 7.93508 15.8946 7.9694 15.8413 8.00412C15.8939 8.00139 15.9468 8 16 8ZM19 7C18.4477 7 18 7.44772 18 8C18 8.55228 18.4477 9 19 9C19.5523 9 20 8.55228 20 8C20 7.44772 19.5523 7 19 7ZM15 11C15 10.4477 15.4477 10 16 10C16.5523 10 17 10.4477 17 11C17 11.5523 16.5523 12 16 12C15.4477 12 15 11.5523 15 11ZM17 14C16.4477 14 16 14.4477 16 15C16 15.5523 16.4477 16 17 16C17.5523 16 18 15.5523 18 15C18 14.4477 17.5523 14 17 14ZM11 15C11 14.4477 11.4477 14 12 14C12.5523 14 13 14.4477 13 15C13 15.5523 12.5523 16 12 16C11.4477 16 11 15.5523 11 15ZM14 3C13.4477 3 13 3.44772 13 4C13 4.55228 13.4477 5 14 5C14.5523 5 15 4.55228 15 4C15 3.44772 14.5523 3 14 3ZM9 7C9 6.44772 9.44772 6 10 6C10.5523 6 11 6.44772 11 7C11 7.55228 10.5523 8 10 8C9.44772 8 9 7.55228 9 7ZM8 10C7.44772 10 7 10.4477 7 11C7 11.5523 7.44772 12 8 12C8.55228 12 9 11.5523 9 11C9 10.4477 8.55228 10 8 10ZM2 11C2 10.4477 2.44772 10 3 10C3.55228 10 4 10.4477 4 11C4 11.5523 3.55228 12 3 12C2.44772 12 2 11.5523 2 11ZM5 14C4.44772 14 4 14.4477 4 15C4 15.5523 4.44772 16 5 16C5.55228 16 6 15.5523 6 15C6 14.4477 5.55228 14 5 14ZM3 19C3 18.4477 3.44772 18 4 18C4.55228 18 5 18.4477 5 19C5 19.5523 4.55228 20 4 20C3.44772 20 3 19.5523 3 19Z" fill="#16A34A"/>
</svg>
