<svg width="24" height="24" viewBox="0 0 24 24" fill="none" xmlns="http://www.w3.org/2000/svg">
<path fill-rule="evenodd" clip-rule="evenodd" d="M17.3575 6.4855C17.6416 6.95908 17.4881 7.57334 17.0145 7.85749C12.3237 10.672 9 16.8418 9 22C9 22.5523 8.55228 23 8 23C7.44772 23 7 22.5523 7 22C7 16.1582 10.6763 9.32803 15.9855 6.14251C16.4591 5.85836 17.0733 6.01192 17.3575 6.4855Z" fill="#16A34A"/>
<path d="M18 14.5C18 15.8807 16.8807 17 15.5 17C14.1193 17 13 15.8807 13 14.5C13 13.1193 14.1193 12 15.5 12C16.8807 12 18 13.1193 18 14.5Z" fill="#16A34A"/>
<path d="M15 19.5C15 20.8807 13.8807 22 12.5 22C11.1193 22 10 20.8807 10 19.5C10 18.1193 11.1193 17 12.5 17C13.8807 17 15 18.1193 15 19.5Z" fill="#16A34A"/>
<path d="M20 19C20 20.1046 19.1046 21 18 21C16.8954 21 16 20.1046 16 19C16 17.8954 16.8954 17 18 17C19.1046 17 20 17.8954 20 19Z" fill="#16A34A"/>
<path d="M6 6C6 7.10457 5.10457 8 4 8C2.89543 8 2 7.10457 2 6C2 4.89543 2.89543 4 4 4C5.10457 4 6 4.89543 6 6Z" fill="#16A34A"/>
<path d="M23 15C23 16.1046 22.1046 17 21 17C19.8954 17 19 16.1046 19 15C19 13.8954 19.8954 13 21 13C22.1046 13 23 13.8954 23 15Z" fill="#16A34A"/>
<path d="M21 10C21 11.1046 20.1046 12 19 12C17.8954 12 17 11.1046 17 10C17 8.89543 17.8954 8 19 8C20.1046 8 21 8.89543 21 10Z" fill="#16A34A"/>
<path d="M16 4C16 5.10457 15.1046 6 14 6C12.8954 6 12 5.10457 12 4C12 2.89543 12.8954 2 14 2C15.1046 2 16 2.89543 16 4Z" fill="#16A34A"/>
<path d="M22 5C22 6.10457 21.1046 7 20 7C18.8954 7 18 6.10457 18 5C18 3.89543 18.8954 3 20 3C21.1046 3 22 3.89543 22 5Z" fill="#16A34A"/>
<path d="M12 6.5C12 7.88071 10.8807 9 9.5 9C8.11929 9 7 7.88071 7 6.5C7 5.11929 8.11929 4 9.5 4C10.8807 4 12 5.11929 12 6.5Z" fill="#16A34A"/>
<path d="M8 11.5C8 12.8807 6.88071 14 5.5 14C4.11929 14 3 12.8807 3 11.5C3 10.1193 4.11929 9 5.5 9C6.88071 9 8 10.1193 8 11.5Z" fill="#16A34A"/>
<path d="M6 17.5C6 18.8807 4.88071 20 3.5 20C2.11929 20 1 18.8807 1 17.5C1 16.1193 2.11929 15 3.5 15C4.88071 15 6 16.1193 6 17.5Z" fill="#16A34A"/>
</svg>
