<svg width="24" height="24" viewBox="0 0 24 24" fill="none" xmlns="http://www.w3.org/2000/svg">
<path fill-rule="evenodd" clip-rule="evenodd" d="M6.25 6C6.25 4.48122 7.48122 3.25 9 3.25H15C16.5188 3.25 17.75 4.48122 17.75 6V7.25H19C20.5188 7.25 21.75 8.48122 21.75 10V18C21.75 19.5188 20.5188 20.75 19 20.75H5C3.48122 20.75 2.25 19.5188 2.25 18V10C2.25 8.48122 3.48122 7.25 5 7.25H6.25V6ZM7.75 7.25H16.25V6C16.25 5.30964 15.6904 4.75 15 4.75H9C8.30964 4.75 7.75 5.30964 7.75 6V7.25Z" fill="#EF4444"/>
</svg>
