<svg width="24" height="24" viewBox="0 0 24 24" fill="none" xmlns="http://www.w3.org/2000/svg">
<g clip-path="url(#clip0_424_1488)">
<path fill-rule="evenodd" clip-rule="evenodd" d="M0.686614 4.24413C1.66885 2.13537 3.98199 0.356762 7.0772 0.855039C9.82896 1.29803 11.0632 1.98304 12.2535 2.74629C12.3402 2.80187 12.4262 2.85758 12.5125 2.91339L12.5125 2.91343L12.5126 2.91346L12.5126 2.9135L12.5127 2.91353C13.5059 3.55647 14.5196 4.21265 16.7357 4.84203C18.8668 5.44728 20.4068 6.45921 21.4744 7.7188C22.538 8.97355 23.0873 10.42 23.3284 11.8288C23.8048 14.6137 23.0965 17.357 22.6372 18.5883C21.7021 21.0953 18.9494 24.5956 14.0543 23.8076C11.7396 23.435 10.0071 22.4913 8.78025 21.1004C7.56523 19.723 6.91323 17.9833 6.60919 16.1245L6.56494 15.853C6.33476 14.4379 6.17824 13.4756 5.6996 12.6448C5.22767 11.8257 4.37149 11.04 2.44011 10.2725C2.42332 10.2658 2.40673 10.2587 2.39035 10.251C1.19489 9.69574 0.496425 8.70065 0.249204 7.57845C0.00785793 6.48291 0.197459 5.29429 0.686614 4.24413ZM3.17532 8.50322C5.33048 9.36401 6.60247 10.3745 7.35953 11.6885C8.02176 12.8379 8.23184 14.1474 8.44123 15.4527C8.46064 15.5736 8.48003 15.6945 8.49979 15.8153C8.76619 17.444 9.31243 18.8078 10.2169 19.8332C11.1096 20.8452 12.4179 21.6038 14.3588 21.9162C17.9748 22.4983 20.0705 19.988 20.8423 17.9188C21.2365 16.8619 21.8384 14.4801 21.4401 12.1519C21.2437 11.0042 20.8095 9.89709 20.0131 8.9575C19.2207 8.02274 18.0243 7.19949 16.2123 6.68487C13.7214 5.97743 12.52 5.20005 11.4732 4.52267C11.3878 4.46741 11.3034 4.4128 11.2194 4.35896C10.2112 3.71247 9.22221 3.14074 6.77272 2.74641C4.66665 2.40737 3.10887 3.58094 2.42319 5.05301C2.07839 5.79326 1.98478 6.55221 2.12007 7.1663C2.2479 7.74659 2.57931 8.21872 3.17532 8.50322ZM8.93468 6.27331C8.23698 5.76322 7.53106 5.59587 6.46816 5.59581C5.77735 5.59578 5.39696 5.74171 5.18116 6.00381C5.19734 6.02891 5.21559 6.05609 5.23601 6.08521C5.31555 6.19857 5.40819 6.31292 5.494 6.40794C5.58276 6.50625 5.63524 6.55179 5.6408 6.55662L5.6412 6.55696L5.64129 6.55704C6.37841 7.11102 6.9565 7.4953 7.45891 7.6827C7.91232 7.85184 8.22547 7.83416 8.53569 7.66223C9.08204 7.35943 9.1633 7.03677 9.16504 6.83755C9.16752 6.55417 9.01311 6.33065 8.93468 6.27331ZM5.08338 5.82549L5.08419 5.82782C5.08361 5.82625 5.08336 5.82548 5.08338 5.82549ZM6.46826 3.68009C7.77526 3.68016 8.92902 3.89606 10.0653 4.72682C10.6708 5.16947 11.0882 5.99044 11.0807 6.8543C11.0724 7.80232 10.5617 8.72964 9.46432 9.33783C8.54877 9.84523 7.62935 9.79094 6.78938 9.47762C5.9984 9.18257 5.22228 8.63856 4.49035 8.08849C4.23431 7.89607 3.90535 7.5241 3.66779 7.18551C3.54343 7.00827 3.40909 6.7913 3.31554 6.56427C3.26862 6.45039 3.21965 6.30472 3.19721 6.14063C3.17541 5.98114 3.17 5.74005 3.27922 5.485C3.90761 4.01761 5.30347 3.68003 6.46826 3.68009ZM12.3719 17.9324C11.9358 17.4379 11.5506 16.6449 11.3398 15.3764C11.2058 14.1088 11.5987 12.4568 12.415 11.1981C13.2202 9.95662 14.2846 9.29623 15.4838 9.46552C16.7795 9.84316 17.4468 10.3742 17.821 10.8157C18.217 11.2829 18.4784 11.8811 18.6076 12.6365C18.8888 14.28 18.4465 16.1194 18.1499 16.9146C17.9206 17.5293 17.4809 18.2015 16.9217 18.6291C16.4636 18.9794 15.845 19.245 14.8155 19.0793C13.4362 18.8572 12.7638 18.3767 12.3719 17.9324ZM15.8412 7.58214C13.5889 7.21955 11.8556 8.54005 10.8078 10.1557C9.76438 11.7644 9.24432 13.8683 9.43839 15.6121C9.4402 15.6284 9.44243 15.6446 9.44508 15.6608C9.69276 17.175 10.1863 18.3506 10.9353 19.1996C11.6603 20.0216 12.7561 20.6881 14.511 20.9706C16.0885 21.2246 17.2329 20.8027 18.0853 20.1509C18.9866 19.4617 19.6165 18.4643 19.9448 17.5841C20.3066 16.6143 20.8551 14.4133 20.4959 12.3135C20.3218 11.2958 19.945 10.3586 19.2824 9.57696C18.628 8.80489 17.6034 8.07581 15.9506 7.6064C15.9147 7.59618 15.8781 7.58808 15.8412 7.58214ZM15.3323 12.8562C14.2877 12.688 13.3046 13.3985 13.1364 14.4431C12.9683 15.4876 13.6787 16.4708 14.7233 16.6389C15.7679 16.8071 16.751 16.0966 16.9191 15.052C17.0873 14.0074 16.3768 13.0243 15.3323 12.8562Z" fill="#16A34A"/>
</g>
<defs>
<clipPath id="clip0_424_1488">
<rect width="24" height="24" fill="white"/>
</clipPath>
</defs>
</svg>
