<svg width="24" height="24" viewBox="0 0 24 24" fill="none" xmlns="http://www.w3.org/2000/svg">
<g clip-path="url(#clip0_424_1330)">
<path d="M15.4703 11.9988C13.9522 11.7544 12.5235 12.7869 12.2791 14.305C12.0348 15.823 13.0673 17.2518 14.5853 17.4961C16.1033 17.7405 17.5321 16.708 17.7765 15.19C18.0208 13.6719 16.9883 12.2432 15.4703 11.9988Z" fill="#E11D48"/>
<path fill-rule="evenodd" clip-rule="evenodd" d="M0.686614 4.24413C1.66885 2.13537 3.98199 0.356762 7.0772 0.855039C9.82896 1.29803 11.0632 1.98304 12.2535 2.74629C12.3402 2.8019 12.4263 2.85763 12.5126 2.91346C13.5058 3.5564 14.5196 4.21265 16.7357 4.84203C18.8668 5.44728 20.4068 6.45921 21.4744 7.7188C22.538 8.97355 23.0873 10.42 23.3284 11.8288C23.8048 14.6137 23.0965 17.357 22.6372 18.5883C21.7021 21.0953 18.9494 24.5956 14.0543 23.8076C11.7396 23.435 10.0071 22.4913 8.78025 21.1004C7.56523 19.723 6.91323 17.9833 6.60919 16.1245L6.56494 15.853C6.33476 14.4379 6.17824 13.4756 5.6996 12.6448C5.22767 11.8257 4.37149 11.04 2.44011 10.2725C2.42332 10.2658 2.40673 10.2587 2.39035 10.251C1.19489 9.69574 0.496425 8.70065 0.249204 7.57845C0.00785788 6.48291 0.197459 5.29429 0.686614 4.24413ZM3.17532 8.50322C5.33048 9.36401 6.60247 10.3745 7.35953 11.6885C8.02176 12.8379 8.23184 14.1474 8.44123 15.4527C8.46064 15.5736 8.48003 15.6945 8.49979 15.8153C8.76619 17.444 9.31243 18.8078 10.2169 19.8332C11.1096 20.8452 12.4179 21.6038 14.3588 21.9162C17.9748 22.4983 20.0705 19.988 20.8423 17.9188C21.2365 16.8619 21.8384 14.4801 21.4401 12.1519C21.2437 11.0042 20.8095 9.89709 20.0131 8.9575C19.2207 8.02274 18.0243 7.19949 16.2123 6.68487C13.7214 5.97743 12.52 5.20005 11.4732 4.52267C11.3878 4.46741 11.3034 4.4128 11.2194 4.35896C10.2112 3.71247 9.22221 3.14074 6.77272 2.74641C4.66665 2.40737 3.10887 3.58094 2.42319 5.05301C2.07839 5.79326 1.98478 6.55221 2.12007 7.1663C2.2479 7.74659 2.57931 8.21872 3.17532 8.50322Z" fill="#E11D48"/>
</g>
<defs>
<clipPath id="clip0_424_1330">
<rect width="24" height="24" fill="white"/>
</clipPath>
</defs>
</svg>
