<svg width="24" height="24" viewBox="0 0 24 24" fill="none" xmlns="http://www.w3.org/2000/svg">
<g clip-path="url(#clip0_309_1468)">
<path fill-rule="evenodd" clip-rule="evenodd" d="M22.2672 5.97533L23.932 0.0679604L18.0246 1.73269L7.75756 11.9997L6.34322 10.5854C5.9527 10.1949 5.31953 10.1949 4.92901 10.5854C4.53849 10.9759 4.53849 11.6091 4.92901 11.9996L7.05044 14.121L1.80768 19.3638C1.02663 20.1448 1.02664 21.4112 1.80768 22.1922C2.58873 22.9733 3.85506 22.9733 4.63611 22.1922L9.87886 16.9495L12.0001 19.0707C12.3906 19.4612 13.0238 19.4612 13.4143 19.0707C13.8048 18.6801 13.8048 18.047 13.4143 17.6565L12.0002 16.2424L22.2672 5.97533ZM10.2764 14.4306C10.3118 14.4906 10.3439 14.552 10.3725 14.6147L10.586 14.8282L20.4838 4.9303L21.0387 2.96118L19.0696 3.51609L9.17178 13.4139L9.38522 13.6274C9.44785 13.656 9.50931 13.6881 9.56931 13.7235L16.9498 6.34299C17.1451 6.14773 17.4617 6.14773 17.6569 6.34299C17.8522 6.53825 17.8522 6.85483 17.6569 7.0501L10.2764 14.4306Z" fill="#1F2937"/>
</g>
<defs>
<clipPath id="clip0_309_1468">
<rect width="24" height="24" fill="white"/>
</clipPath>
</defs>
</svg>
