<svg width="24" height="24" viewBox="0 0 24 24" fill="none" xmlns="http://www.w3.org/2000/svg">
<g clip-path="url(#clip0_308_1456)">
<path fill-rule="evenodd" clip-rule="evenodd" d="M22.2672 5.97545L23.932 0.0680825L18.0246 1.73281L7.75756 11.9998L6.34322 10.5855C5.9527 10.195 5.31953 10.195 4.92901 10.5855C4.53849 10.976 4.53849 11.6092 4.92901 11.9997L7.05044 14.1211L1.80768 19.3639C1.02663 20.145 1.02664 21.4113 1.80768 22.1923C2.58873 22.9734 3.85506 22.9734 4.63611 22.1923L9.87886 16.9496L12.0001 19.0708C12.3906 19.4613 13.0238 19.4613 13.4143 19.0708C13.8048 18.6803 13.8048 18.0471 13.4143 17.6566L12.0002 16.2425L22.2672 5.97545ZM10.2764 14.4307C10.3118 14.4907 10.3439 14.5522 10.3725 14.6148L10.586 14.8283L20.4838 4.93043L21.0387 2.9613L19.0696 3.51621L9.17178 13.4141L9.38522 13.6275C9.44785 13.6561 9.50931 13.6882 9.56931 13.7236L16.9498 6.34311C17.1451 6.14785 17.4617 6.14785 17.6569 6.34311C17.8522 6.53837 17.8522 6.85496 17.6569 7.05022L10.2764 14.4307Z" fill="#DC2626"/>
</g>
<defs>
<clipPath id="clip0_308_1456">
<rect width="24" height="24" fill="white"/>
</clipPath>
</defs>
</svg>
