<svg width="24" height="24" viewBox="0 0 24 24" fill="none" xmlns="http://www.w3.org/2000/svg">
<g clip-path="url(#clip0_308_1439)">
<path fill-rule="evenodd" clip-rule="evenodd" d="M22.2672 5.97546L23.9319 0.0680977L18.0245 1.73282L7.75749 11.9999L6.34315 10.5855C5.95263 10.195 5.31947 10.195 4.92894 10.5855C4.53842 10.976 4.53842 11.6092 4.92894 11.9997L7.05037 14.1212L1.80762 19.3639C1.02657 20.145 1.02657 21.4113 1.80762 22.1923C2.58866 22.9734 3.85499 22.9734 4.63604 22.1923L9.87879 16.9496L12 19.0708C12.3905 19.4613 13.0237 19.4613 13.4142 19.0708C13.8047 18.6803 13.8047 18.0471 13.4142 17.6566L12.0001 16.2425L22.2672 5.97546ZM10.2763 14.4307C10.3118 14.4907 10.3438 14.5522 10.3724 14.6148L10.5859 14.8283L20.4838 4.93044L21.0387 2.96132L19.0696 3.51623L9.17171 13.4141L9.38515 13.6275C9.44779 13.6562 9.50924 13.6882 9.56925 13.7236L16.9498 6.34313C17.145 6.14786 17.4616 6.14786 17.6569 6.34313C17.8521 6.53839 17.8521 6.85497 17.6569 7.05023L10.2763 14.4307Z" fill="#DC2626"/>
</g>
<defs>
<clipPath id="clip0_308_1439">
<rect width="24" height="24" fill="white"/>
</clipPath>
</defs>
</svg>
