<svg width="24" height="24" viewBox="0 0 24 24" fill="none" xmlns="http://www.w3.org/2000/svg">
<path fill-rule="evenodd" clip-rule="evenodd" d="M12 1.25C12.4142 1.25 12.75 1.58579 12.75 2V3.29102C15.4508 3.58738 17.75 5.4614 17.75 8C17.75 8.41421 17.4142 8.75 17 8.75C16.5858 8.75 16.25 8.41421 16.25 8C16.25 6.52216 14.8514 5.08037 12.75 4.79923L12.75 11.446C13.0026 11.5203 13.2483 11.5887 13.4926 11.6567C13.7137 11.7182 13.9337 11.7794 14.1564 11.8444C14.7623 12.0213 15.3692 12.2218 15.8992 12.5156C16.4425 12.8169 16.9246 13.2264 17.2611 13.8259C17.5941 14.4192 17.75 15.137 17.75 16C17.75 18.5386 15.4508 20.4126 12.75 20.709V22C12.75 22.4142 12.4142 22.75 12 22.75C11.5858 22.75 11.25 22.4142 11.25 22V20.709C8.54919 20.4126 6.25 18.5386 6.25 16C6.25 15.5858 6.58579 15.25 7 15.25C7.41421 15.25 7.75 15.5858 7.75 16C7.75 17.4778 9.14862 18.9196 11.25 19.2008L11.25 12.554C10.9974 12.4797 10.7517 12.4113 10.5074 12.3433C10.2863 12.2818 10.0663 12.2206 9.8436 12.1556C9.23767 11.9787 8.63077 11.7782 8.10081 11.4844C7.55745 11.1831 7.07541 10.7736 6.7389 10.1741C6.40589 9.58077 6.25 8.86301 6.25 8C6.25 5.4614 8.54919 3.58738 11.25 3.29102V2C11.25 1.58579 11.5858 1.25 12 1.25ZM11.25 4.79923C9.14862 5.08037 7.75 6.52216 7.75 8C7.75 8.68601 7.87393 9.13164 8.04695 9.43989C8.21647 9.74191 8.46666 9.97209 8.82812 10.1725C9.20298 10.3803 9.67349 10.5433 10.264 10.7157C10.4508 10.7703 10.6533 10.8267 10.8661 10.8859C10.9909 10.9207 11.1192 10.9565 11.25 10.9934L11.25 4.79923ZM12.75 13.0066L12.75 19.2008C14.8514 18.9196 16.25 17.4778 16.25 16C16.25 15.314 16.1261 14.8684 15.9531 14.5601C15.7835 14.2581 15.5333 14.0279 15.1719 13.8275C14.797 13.6197 14.3265 13.4567 13.736 13.2843C13.5492 13.2297 13.3467 13.1733 13.1339 13.114C13.0091 13.0793 12.8808 13.0435 12.75 13.0066Z" fill="#EF4444"/>
</svg>
