<svg width="24" height="24" viewBox="0 0 24 24" fill="none" xmlns="http://www.w3.org/2000/svg">
<path fill-rule="evenodd" clip-rule="evenodd" d="M11.5 0C12.0523 0 12.5 0.447715 12.5 1V2.26524C15.4642 2.65334 18 4.73857 18 7.6C18 8.15229 17.5523 8.6 17 8.6C16.4477 8.6 16 8.15229 16 7.6C16 6.1359 14.6385 4.64308 12.5 4.28212L12.5 11.2594C12.7311 11.3264 12.9576 11.3894 13.1838 11.4523C13.4279 11.5202 13.6717 11.588 13.9211 11.6608C14.5894 11.856 15.2729 12.0809 15.874 12.4141C16.4929 12.7573 17.0502 13.2287 17.4398 13.9229C17.8248 14.6088 18 15.43 18 16.4C18 19.2614 15.4642 21.3467 12.5 21.7348V23C12.5 23.5523 12.0523 24 11.5 24C10.9477 24 10.5 23.5523 10.5 23V21.7348C7.53576 21.3467 5 19.2614 5 16.4C5 15.8477 5.44772 15.4 6 15.4C6.55228 15.4 7 15.8477 7 16.4C7 17.8641 8.36152 19.3569 10.5 19.7179L10.5 12.7406C10.2689 12.6736 10.0424 12.6106 9.81616 12.5477C9.57213 12.4798 9.32827 12.412 9.07891 12.3392C8.41059 12.1441 7.72709 11.9191 7.12604 11.5859C6.50712 11.2427 5.94983 10.7713 5.56019 10.0771C5.17521 9.39125 5 8.56996 5 7.6C5 4.73857 7.53576 2.65334 10.5 2.26524V1C10.5 0.447715 10.9477 0 11.5 0ZM10.5 4.28212C8.36152 4.64308 7 6.1359 7 7.6C7 8.33396 7.13259 8.7924 7.30424 9.09822C7.47124 9.39574 7.7194 9.62802 8.09578 9.83669C8.49004 10.0553 8.99169 10.2302 9.63939 10.4193C9.84089 10.4781 10.0615 10.5396 10.2944 10.6045C10.362 10.6233 10.4305 10.6424 10.5 10.6618L10.5 4.28212ZM12.5 13.3382L12.5 19.7179C14.6385 19.3569 16 17.8641 16 16.4C16 15.666 15.8674 15.2076 15.6958 14.9018C15.5288 14.6043 15.2806 14.372 14.9042 14.1633C14.51 13.9447 14.0083 13.7698 13.3606 13.5807C13.1591 13.5219 12.9385 13.4604 12.7056 13.3955C12.638 13.3767 12.5695 13.3576 12.5 13.3382Z" fill="#16A34A"/>
</svg>
