<svg width="24" height="24" viewBox="0 0 24 24" fill="none" xmlns="http://www.w3.org/2000/svg">
<g clip-path="url(#clip0_233_1096)">
<path fill-rule="evenodd" clip-rule="evenodd" d="M11.3655 8.90053L6.86569 1.10486L5.99927 1.60605C2.41508 3.6794 0 7.5571 0 12.0001V13.0001H9V12.0001C9 10.8909 9.60141 9.92101 10.5007 9.40079L11.3655 8.90053ZM7.10006 11.0001H2.04936C2.33997 8.07236 3.8931 5.51531 6.15939 3.8819L8.68488 8.25715C7.88972 8.962 7.31994 9.91727 7.10006 11.0001Z" fill="#7C3AED"/>
<path fill-rule="evenodd" clip-rule="evenodd" d="M18.0007 1.60605L17.1343 1.10486L12.6345 8.90053L13.4993 9.40079C14.3986 9.92101 15 10.8909 15 12.0001V13.0001H24V12.0001C24 7.5571 21.5849 3.6794 18.0007 1.60605ZM15.3151 8.25715L17.8406 3.8819C20.1069 5.51531 21.66 8.07236 21.9506 11.0001H16.8999C16.6801 9.91727 16.1103 8.962 15.3151 8.25715Z" fill="#7C3AED"/>
<path fill-rule="evenodd" clip-rule="evenodd" d="M18.8655 21.8938L14.3657 14.0981L13.4993 14.5993C13.059 14.854 12.5481 15.0001 12 15.0001C11.4519 15.0001 10.941 14.854 10.5007 14.5993L9.63431 14.0981L5.13448 21.8938L5.99928 22.3941C7.76533 23.4157 9.81594 24.0001 12 24.0001C14.1841 24.0001 16.2347 23.4157 18.0007 22.3941L18.8655 21.8938ZM7.8906 21.1197L10.4164 16.7438C10.9147 16.9101 11.4474 17.0001 12 17.0001C12.5526 17.0001 13.0853 16.9101 13.5836 16.7438L16.1094 21.1197C14.8566 21.6852 13.4661 22.0001 12 22.0001C10.5339 22.0001 9.14339 21.6852 7.8906 21.1197Z" fill="#7C3AED"/>
<path d="M14 12C14 13.1046 13.1046 14 12 14C10.8954 14 10 13.1046 10 12C10 10.8954 10.8954 10 12 10C13.1046 10 14 10.8954 14 12Z" fill="#7C3AED"/>
</g>
<defs>
<clipPath id="clip0_233_1096">
<rect width="24" height="24" fill="white"/>
</clipPath>
</defs>
</svg>
