<svg width="24" height="24" viewBox="0 0 24 24" fill="none" xmlns="http://www.w3.org/2000/svg">
<path fill-rule="evenodd" clip-rule="evenodd" d="M6.29289 2.29289C6.68342 1.90237 7.31658 1.90237 7.70711 2.29289L12.7071 7.29289C13.0976 7.68342 13.0976 8.31658 12.7071 8.70711C12.3166 9.09763 11.6834 9.09763 11.2929 8.70711L8 5.41421V20C8 20.5523 7.55228 21 7 21C6.44772 21 6 20.5523 6 20V5.41421L2.70711 8.70711C2.31658 9.09763 1.68342 9.09763 1.29289 8.70711C0.902369 8.31658 0.902369 7.68342 1.29289 7.29289L6.29289 2.29289ZM17 3C17.5523 3 18 3.44772 18 4V18.5858L21.2929 15.2929C21.6834 14.9024 22.3166 14.9024 22.7071 15.2929C23.0976 15.6834 23.0976 16.3166 22.7071 16.7071L17.7071 21.7071C17.3166 22.0976 16.6834 22.0976 16.2929 21.7071L11.2929 16.7071C10.9024 16.3166 10.9024 15.6834 11.2929 15.2929C11.6834 14.9024 12.3166 14.9024 12.7071 15.2929L16 18.5858V4C16 3.44772 16.4477 3 17 3Z" fill="#262626"/>
</svg>
