<svg width="24" height="24" viewBox="0 0 24 24" fill="none" xmlns="http://www.w3.org/2000/svg">
<g clip-path="url(#clip0_424_1495)">
<path fill-rule="evenodd" clip-rule="evenodd" d="M5.77528 0.502227C6.14627 0.285305 6.61438 0.329676 6.938 0.612441C8.81769 2.25479 10.082 4.56293 10.3913 7.12836C10.7501 6.60082 11.1635 6.09922 11.6312 5.63145C14.0673 3.19542 17.421 2.23638 20.5763 2.75139C21.0005 2.82062 21.333 3.15311 21.4022 3.57725C21.9116 6.69844 20.9787 10.0138 18.6006 12.443C20.0146 12.5315 21.3954 12.9111 22.652 13.5522C23.0348 13.7475 23.25 14.1656 23.1866 14.5906C22.7145 17.7527 20.7782 20.654 17.7152 22.2308C15.3568 23.4449 12.7475 23.6592 10.3718 23.0303C9.57335 23.3718 8.68017 23.4972 7.7448 23.3086C7.25817 23.2104 6.74183 23.2104 6.2552 23.3086C4.50899 23.6607 2.90987 22.9186 1.79923 21.7186C0.692141 20.5225 0 18.8125 0 16.9998C0 15.4017 0.549736 14.1371 1.42116 13.2566C0.819189 11.773 0.555197 10.1264 0.716753 8.42192C1.04184 4.9922 3.01537 2.11598 5.77528 0.502227ZM12.049 12.7966C11.62 12.4776 11.1478 12.2402 10.6573 12.0815C10.8408 10.2422 11.6372 8.45386 13.0454 7.04566C14.8184 5.27268 17.1939 4.46951 19.5153 4.63829C19.684 6.95961 18.8809 9.3351 17.1079 11.1081C15.8657 12.3502 14.3278 13.1163 12.72 13.4057C12.5153 13.1795 12.2905 12.9763 12.049 12.7966ZM7.78 11.6752C7.60567 11.1459 7.34716 10.6725 7.07682 10.2751C6.59402 9.56538 6.01544 9.01164 5.6 8.70006C5.15817 8.36869 4.53137 8.45823 4.2 8.90006C3.86863 9.34189 3.95817 9.96869 4.4 10.3001C4.65123 10.4885 5.07264 10.8847 5.42318 11.4C5.53636 11.5664 5.63626 11.7364 5.71975 11.908C4.8809 11.7641 3.97838 11.84 3.14064 12.1518C2.75166 11.0506 2.5904 9.84955 2.70783 8.61064C2.94443 6.11444 4.26338 3.9817 6.15993 2.63256C7.76921 4.31401 8.66395 6.65656 8.42735 9.15274C8.34262 10.0466 8.11911 10.8938 7.78 11.6752ZM3.1446 14.4014C2.51283 14.8713 2 15.6876 2 16.9998C2 18.3192 2.50911 19.5412 3.26703 20.3601C4.02141 21.1752 4.95105 21.5313 5.85987 21.348C6.60743 21.1973 7.39257 21.1973 8.14013 21.348C9.04895 21.5313 9.97859 21.1752 10.733 20.3601C11.4909 19.5412 12 18.3192 12 16.9998C12 15.6876 11.4872 14.8713 10.8554 14.4014C10.1934 13.9091 9.32455 13.7407 8.55649 13.8905C7.55765 14.0853 6.44235 14.0853 5.44351 13.8905C4.67545 13.7407 3.80658 13.9091 3.1446 14.4014ZM14 16.9998C14 16.4731 13.9403 15.9827 13.829 15.5303C13.9407 15.4661 14.0545 15.4042 14.1702 15.3446C16.3995 14.197 18.9067 14.1567 21.0659 15.0255C20.5186 17.2877 19.0291 19.305 16.7998 20.4526C15.4262 21.1598 13.947 21.4465 12.5088 21.3591C13.4347 20.1922 14 18.6379 14 16.9998Z" fill="#16A34A"/>
</g>
<defs>
<clipPath id="clip0_424_1495">
<rect width="24" height="24" fill="white"/>
</clipPath>
</defs>
</svg>
