<svg width="24" height="24" viewBox="0 0 24 24" fill="none" xmlns="http://www.w3.org/2000/svg">
<path d="M2.67696 9.56949C3.90325 8.91659 4.87634 7.79024 5.29954 6.3522C5.72272 4.91422 5.51488 3.44038 4.83777 2.22736C3.61148 2.88025 2.63839 4.0066 2.21519 5.44464C1.79202 6.88262 1.99986 8.35646 2.67696 9.56949Z" fill="#DC2626"/>
<path d="M10.7907 8.81917C11.5395 7.64897 11.8356 6.19018 11.4995 4.72928C11.1635 3.26847 10.2599 2.08573 9.07507 1.36035C8.32621 2.53056 8.03016 3.98935 8.36622 5.45025C8.70226 6.91106 9.60588 8.09379 10.7907 8.81917Z" fill="#DC2626"/>
<path d="M15.7348 8.93647C16.8731 8.14 17.7027 6.9042 17.9488 5.42554C18.1949 3.9469 17.8103 2.509 16.9914 1.3868C15.8531 2.18326 15.0234 3.41906 14.7773 4.89772C14.5312 6.37637 14.9159 7.81426 15.7348 8.93647Z" fill="#DC2626"/>
<path d="M12.2604 23.4144C10.9126 23.0779 9.69577 22.2206 8.93702 20.9278C8.17828 19.6351 8.02312 18.1547 8.38642 16.8138C9.73428 17.1504 10.9511 18.0077 11.7098 19.3004C12.4686 20.5932 12.6237 22.0736 12.2604 23.4144Z" fill="#DC2626"/>
<path d="M12.7616 16.4708C13.8468 15.6033 14.596 14.3171 14.7473 12.8257C14.8986 11.3344 14.4231 9.92405 13.5344 8.85636C12.4491 9.72379 11.6999 11.01 11.5486 12.5014C11.3973 13.9927 11.8728 15.4031 12.7616 16.4708Z" fill="#DC2626"/>
<path d="M21.5846 20.446C22.0796 19.1479 22.0724 17.6594 21.446 16.2975C20.8196 14.9357 19.6942 13.9617 18.3866 13.4927C17.8916 14.7909 17.8987 16.2794 18.5252 17.6413C19.1516 19.003 20.277 19.977 21.5846 20.446Z" fill="#DC2626"/>
<path d="M18.4339 11.5536C19.7585 11.1346 20.9202 10.2038 21.5978 8.86666C22.2753 7.52959 22.3388 6.04256 21.8935 4.72668C20.569 5.14576 19.4073 6.07646 18.7297 7.41364C18.0522 8.75071 17.9886 10.2377 18.4339 11.5536Z" fill="#DC2626"/>
<path d="M16.7412 23.6451C17.4803 22.4687 17.7642 21.0075 17.416 19.5495C17.0678 18.0915 16.1544 16.9164 14.9637 16.2009C14.2246 17.3773 13.9407 18.8384 14.2889 20.2965C14.637 21.7544 15.5504 22.9296 16.7412 23.6451Z" fill="#DC2626"/>
<path d="M3.59386 12.2091C4.70388 13.0445 5.49027 14.3083 5.68503 15.7946C5.8798 17.2808 5.44562 18.7045 4.58836 19.7977C3.47834 18.9623 2.69196 17.6985 2.49719 16.2122C2.30243 14.726 2.7366 13.3023 3.59386 12.2091Z" fill="#DC2626"/>
<path d="M6.56701 7.72678C7.8576 8.241 8.94854 9.25362 9.52716 10.6364C10.1058 12.0192 10.0611 13.507 9.52139 14.787C8.2308 14.2728 7.13986 13.2602 6.56123 11.8774C5.98264 10.4946 6.02729 9.00685 6.56701 7.72678Z" fill="#DC2626"/>
</svg>
