<svg width="24" height="24" viewBox="0 0 24 24" fill="none" xmlns="http://www.w3.org/2000/svg">
<g clip-path="url(#clip0_405_1320)">
<path fill-rule="evenodd" clip-rule="evenodd" d="M5.71453 2.02329C6.00949 2.08807 6.25938 2.28269 6.39443 2.5528L7.47275 4.70944L10.1061 3.58086C10.4819 3.41979 10.918 3.50376 11.2071 3.7929L14 6.5858L15.2929 5.2929C15.5855 5.00032 16.028 4.91815 16.4061 5.0862L20.9061 7.0862C21.1974 7.21564 21.4095 7.47615 21.4772 7.78758L23.9772 19.2876C24.0414 19.5832 23.9684 19.892 23.7786 20.1275C23.5888 20.3631 23.3025 20.5 23 20.5H1.00001C0.710958 20.5 0.436049 20.3749 0.246137 20.157C0.0562254 19.9391 -0.0301096 19.6497 0.00938518 19.3634L2.00939 4.86337C2.04438 4.6097 2.17535 4.37911 2.37531 4.21914L4.87531 2.21914C5.11113 2.03049 5.41957 1.95851 5.71453 2.02329ZM3.93613 5.53173L2.1474 18.5H21.7593L19.6305 8.7079L16.2215 7.19276L14.7071 8.70712C14.3166 9.09764 13.6834 9.09764 13.2929 8.70712L10.2716 5.68585L7.39393 6.91915C6.90726 7.12772 6.34237 6.9208 6.10558 6.44722L5.15878 4.55362L3.93613 5.53173Z" fill="#16A34A"/>
</g>
<defs>
<clipPath id="clip0_405_1320">
<rect width="24" height="24" fill="white"/>
</clipPath>
</defs>
</svg>
