<svg width="24" height="24" viewBox="0 0 24 24" fill="none" xmlns="http://www.w3.org/2000/svg">
<path fill-rule="evenodd" clip-rule="evenodd" d="M10.3627 3C11.1325 1.66667 13.057 1.66667 13.8268 3L22.9201 18.75C23.6899 20.0833 22.7277 21.75 21.1881 21.75H3.00152C1.46192 21.75 0.499668 20.0833 1.26947 18.75L10.3627 3ZM12.0948 4L3.00152 19.75H21.1881L12.0948 4L12.9608 3.5L12.0948 4ZM12.043 8.10254C12.5953 8.10254 13.043 8.55025 13.043 9.10254V13.1025C13.043 13.6548 12.5953 14.1025 12.043 14.1025C11.4907 14.1025 11.043 13.6548 11.043 13.1025V9.10254C11.043 8.55025 11.4907 8.10254 12.043 8.10254ZM11.043 17.1025C11.043 16.5503 11.4907 16.1025 12.043 16.1025H12.053C12.6053 16.1025 13.053 16.5503 13.053 17.1025C13.053 17.6548 12.6053 18.1025 12.053 18.1025H12.043C11.4907 18.1025 11.043 17.6548 11.043 17.1025Z" fill="#EA580C"/>
</svg>
