<svg width="24" height="24" viewBox="0 0 24 24" fill="none" xmlns="http://www.w3.org/2000/svg">
<g clip-path="url(#clip0_405_1290)">
<path fill-rule="evenodd" clip-rule="evenodd" d="M12.6353 1.22778L12 2.00001L11.3647 1.22778L12 0.705078L12.6353 1.22778ZM12 3.32979C11.8378 3.47732 11.6496 3.652 11.4412 3.85137C10.7122 4.54863 9.74196 5.5417 8.77437 6.72589C6.79982 9.14246 5 12.1586 5 15C5 18.866 8.13401 22 12 22C15.866 22 19 18.866 19 15C19 12.1586 17.2002 9.14246 15.2256 6.72589C14.258 5.5417 13.2878 4.54863 12.5588 3.85137C12.3504 3.652 12.1622 3.47732 12 3.32979ZM11.3647 1.22778C11.3649 1.22758 11.3647 1.22778 12 2.00001C12.6353 1.22778 12.6351 1.22758 12.6353 1.22778L12.6382 1.23017L12.644 1.23498L12.6642 1.25175C12.6813 1.26608 12.7059 1.28668 12.7373 1.31335C12.8 1.3667 12.8904 1.44435 13.0044 1.54465C13.2323 1.7452 13.5551 2.03673 13.9412 2.40602C14.7122 3.1434 15.742 4.1969 16.7744 5.46043C18.7998 7.93929 21 11.4232 21 15C21 19.9706 16.9706 24 12 24C7.02944 24 3 19.9706 3 15C3 11.4232 5.20018 7.93929 7.22563 5.46043C8.25804 4.1969 9.28784 3.1434 10.0588 2.40602C10.4449 2.03673 10.7677 1.7452 10.9956 1.54465C11.1096 1.44435 11.2 1.3667 11.2627 1.31335C11.2941 1.28668 11.3187 1.26608 11.3358 1.25175L11.356 1.23498L11.3618 1.23017L11.3647 1.22778Z" fill="#DC2626"/>
</g>
<defs>
<clipPath id="clip0_405_1290">
<rect width="24" height="24" fill="white"/>
</clipPath>
</defs>
</svg>
