<svg width="24" height="24" viewBox="0 0 24 24" fill="none" xmlns="http://www.w3.org/2000/svg">
<g clip-path="url(#clip0_424_1499)">
<path fill-rule="evenodd" clip-rule="evenodd" d="M12.607 9.60587C12.6717 9.65287 12.7376 9.69846 12.8044 9.7426C12.8927 9.80087 12.9828 9.85662 13.0747 9.90973C13.89 9.43808 14.5703 8.75892 15.0433 7.94447C15.065 7.90715 15.0862 7.86956 15.107 7.83168C15.2426 7.5846 15.3595 7.32573 15.4556 7.057C15.6584 6.48996 15.7688 5.87902 15.7688 5.24228C15.7688 4.48558 15.6128 3.76531 15.3313 3.11187C14.8707 2.04304 14.0742 1.15301 13.0747 0.574831C11.6034 1.42593 10.5718 2.95275 10.4044 4.73094C10.3886 4.89925 10.3805 5.06982 10.3805 5.24228C10.3805 7.03689 11.2578 8.62659 12.607 9.60587ZM13.0747 7.2979C13.511 6.72689 13.7688 6.01424 13.7688 5.24228C13.7688 4.47033 13.511 3.75768 13.0747 3.18667C12.6383 3.75768 12.3805 4.47033 12.3805 5.24228C12.3805 6.01424 12.6383 6.72689 13.0747 7.2979ZM21.3264 8.89649C20.5705 8.49241 19.7069 8.26331 18.7898 8.26331C18.1531 8.26331 17.5422 8.37376 16.9751 8.57653C16.8404 8.62473 16.7081 8.67813 16.5785 8.73651C16.3327 8.84728 16.0967 8.97594 15.8721 9.12084C15.1532 9.58477 14.5518 10.2151 14.1224 10.9575C14.1755 11.0493 14.2312 11.1394 14.2895 11.2277C14.3337 11.2946 14.3793 11.3604 14.4262 11.4251C15.4055 12.7743 16.9952 13.6516 18.7898 13.6516C18.9623 13.6516 19.1329 13.6435 19.3012 13.6277C21.0794 13.4603 22.6062 12.4288 23.4573 10.9575C22.954 10.0875 22.2145 9.37122 21.3264 8.89649ZM20.8455 10.9575C20.2744 10.5211 19.5618 10.2633 18.7898 10.2633C18.0179 10.2633 17.3052 10.5211 16.7342 10.9575C17.3052 11.3939 18.0179 11.6516 18.7898 11.6516C19.5618 11.6516 20.2744 11.3939 20.8455 10.9575ZM10.794 10.7045C10.8099 10.5362 10.818 10.3656 10.818 10.1931C10.818 8.3124 9.8544 6.65672 8.39402 5.69282C8.30573 5.63455 8.21562 5.5788 8.1238 5.52568C6.58838 6.41388 5.53192 8.03795 5.43667 9.91565C5.43201 10.0076 5.42965 10.1001 5.42965 10.1931C5.42965 11.9877 6.30698 13.5774 7.65613 14.5567C7.67298 14.569 7.6899 14.5811 7.7069 14.5931C7.84144 14.6884 7.98053 14.7777 8.1238 14.8606C9.22018 14.2264 10.0724 13.2169 10.5047 12.0078C10.6526 11.5944 10.7514 11.1576 10.794 10.7045ZM8.1238 8.13752C7.68741 8.70853 7.42965 9.42118 7.42965 10.1931C7.42965 10.9651 7.68741 11.6777 8.1238 12.2487C8.5602 11.6777 8.81796 10.9651 8.81796 10.1931C8.81796 9.42118 8.5602 8.70853 8.1238 8.13752ZM5.73079 15.5508C5.73545 15.4589 5.73781 15.3664 5.73781 15.2733C5.73781 13.4563 4.83843 11.8493 3.46056 10.8733C3.32602 10.778 3.18692 10.6887 3.04365 10.6058C1.43308 11.5375 0.349494 13.2789 0.349493 15.2733C0.349494 17.0679 1.22682 18.6576 2.57598 19.6369C2.72621 19.7459 2.88228 19.8474 3.04365 19.9407C4.14003 19.3065 4.99221 18.2971 5.42458 17.088C5.59772 16.6038 5.70355 16.0877 5.73079 15.5508ZM3.04365 17.3289C3.48005 16.7579 3.73781 16.0452 3.73781 15.2733C3.73781 14.5013 3.48005 13.7887 3.04365 13.2177C2.60725 13.7887 2.34949 14.5013 2.34949 15.2733C2.34949 16.0452 2.60725 16.7579 3.04365 17.3289ZM6.94412 18.6075C5.73505 19.0399 4.72561 19.8921 4.09138 20.9885C4.18473 21.1498 4.2862 21.3059 4.39524 21.4561C5.37453 22.8053 6.96422 23.6826 8.75883 23.6826C10.7533 23.6826 12.4946 22.599 13.4263 20.9885C13.3434 20.8452 13.2541 20.7061 13.1588 20.5716C12.1828 19.1937 10.5759 18.2943 8.75884 18.2943C8.66577 18.2943 8.57325 18.2967 8.48135 18.3013C7.94444 18.3286 7.42828 18.4344 6.94412 18.6075ZM10.8145 20.9885C10.2434 20.5521 9.53079 20.2943 8.75884 20.2943C7.98688 20.2943 7.27423 20.5521 6.70322 20.9885C7.27423 21.4249 7.98688 21.6826 8.75883 21.6826C9.53079 21.6826 10.2434 21.4249 10.8145 20.9885ZM9.4754 16.376C10.4547 17.7251 12.0444 18.6025 13.839 18.6025C13.9321 18.6025 14.0246 18.6001 14.1165 18.5955C15.9942 18.5002 17.6182 17.4437 18.5064 15.9083C18.4533 15.8165 18.3976 15.7264 18.3393 15.6381C17.3754 14.1777 15.7197 13.2142 13.839 13.2142C13.6665 13.2142 13.496 13.2223 13.3276 13.2381C12.8745 13.2808 12.4377 13.3795 12.0243 13.5274C10.8152 13.9598 9.80576 14.8119 9.17154 15.9083C9.25441 16.0516 9.3437 16.1907 9.439 16.3252C9.45104 16.3422 9.46317 16.3591 9.4754 16.376ZM11.7834 15.9083C12.3544 16.3447 13.067 16.6025 13.839 16.6025C14.6109 16.6025 15.3236 16.3447 15.8946 15.9083C15.3236 15.4719 14.6109 15.2142 13.839 15.2142C13.067 15.2142 12.3544 15.4719 11.7834 15.9083ZM17.4943 3.2407C17.1319 3.86498 16.9053 4.54646 16.8144 5.24228C16.7585 5.67082 16.754 6.1048 16.8011 6.5342C16.8308 6.80514 16.881 7.07427 16.9517 7.33905C17.1114 7.38168 17.2726 7.41686 17.4348 7.44459C17.8826 7.52109 18.3381 7.54083 18.7898 7.5038C19.647 7.43355 20.4905 7.15894 21.2413 6.67996C21.5661 6.47278 21.8735 6.22737 22.1572 5.94372C23.5674 4.53344 24.0325 2.53591 23.5525 0.738274C21.7549 0.258215 19.7573 0.723326 18.347 2.13361C18.0083 2.47239 17.724 2.84506 17.4943 3.2407ZM21.7056 2.58512C20.9933 2.68031 20.3071 3.00196 19.7613 3.54782C19.2154 4.09367 18.8937 4.77986 18.7986 5.4922C19.5109 5.39702 20.1971 5.07536 20.7429 4.5295C21.2888 3.98365 21.6104 3.29747 21.7056 2.58512Z" fill="#16A34A"/>
</g>
<defs>
<clipPath id="clip0_424_1499">
<rect width="24" height="24" fill="white"/>
</clipPath>
</defs>
</svg>
