<svg width="24" height="24" viewBox="0 0 24 24" fill="none" xmlns="http://www.w3.org/2000/svg">
<path fill-rule="evenodd" clip-rule="evenodd" d="M5 0H19V1C19 4.43529 18.3059 7.5948 17.1371 9.93249C16.1735 11.8596 14.7666 13.4372 13 13.8774V22H18C18.5523 22 19 22.4477 19 23C19 23.5523 18.5523 24 18 24H6C5.44772 24 5 23.5523 5 23C5 22.4477 5.44772 22 6 22H11L11 13.8774C9.2334 13.4372 7.82647 11.8596 6.86293 9.93249C5.69409 7.5948 5 4.43529 5 1V0ZM7.02141 2C7.14118 4.78335 7.75506 7.24462 8.65179 9.03807C9.68442 11.1033 10.926 12 12 12C13.074 12 14.3156 11.1033 15.3482 9.03807C16.2449 7.24462 16.8588 4.78335 16.9786 2H7.02141Z" fill="#9F1239"/>
</svg>
