<svg width="24" height="24" viewBox="0 0 24 24" fill="none" xmlns="http://www.w3.org/2000/svg">
<path fill-rule="evenodd" clip-rule="evenodd" d="M20.9788 3.94997C20.3398 2.88493 19.3177 2 18 2H7C5.68231 2 4.66021 2.88493 4.02119 3.94997C3.37022 5.03492 3 6.46921 3 8C3 9.50738 3.35898 10.9212 3.99152 12C2.67793 12.0038 1.65884 12.8872 1.02119 13.95C0.370218 15.0349 0 16.4692 0 18C0 19.5308 0.370218 20.9651 1.02119 22.05C1.66021 23.1151 2.68231 24 4 24H20C21.3177 24 22.3398 23.1151 22.9788 22.05C23.6298 20.9651 24 19.5308 24 18C24 16.4692 23.6298 15.0349 22.9788 13.95C22.497 13.1469 21.7973 12.4462 20.9173 12.1501C20.9382 12.1169 20.9587 12.0836 20.9788 12.05C21.6298 10.9651 22 9.53079 22 8C22 6.46921 21.6298 5.03492 20.9788 3.94997ZM5 8C5 6.76937 5.30135 5.70366 5.73617 4.97896C6.18293 4.23436 6.66083 4 7 4C7.33917 4 7.81707 4.23436 8.26383 4.97896C8.69865 5.70366 9 6.76937 9 8C9 9.23063 8.69865 10.2963 8.26383 11.021C7.81707 11.7656 7.33917 12 7 12C6.66083 12 6.18293 11.7656 5.73617 11.021C5.30135 10.2963 5 9.23063 5 8ZM10.486 5.01269C10.351 4.65107 10.1912 4.31156 10.0085 4H18C18.3392 4 18.8171 4.23436 19.2638 4.97896C19.6986 5.70366 20 6.76937 20 8C20 8.16996 19.9943 8.33678 19.9832 8.49998C17.7946 8.49622 16.6267 7.7576 15.3672 6.91795L15.2431 6.83507C14.041 6.03207 12.69 5.12955 10.486 5.01269ZM10.9533 7.06518C10.9842 7.37117 11 7.68352 11 8C11 9.50738 10.641 10.9212 10.0085 12H18C18.3392 12 18.8171 11.7656 19.2638 11.021C19.3603 10.8603 19.4502 10.6827 19.5317 10.4903C17.0196 10.3849 15.5423 9.43836 14.2578 8.58205L14.182 8.5315C13.1434 7.83872 12.2685 7.25512 10.9533 7.06518ZM13.0085 22L20 22C20.3392 22 20.8171 21.7656 21.2638 21.021C21.6986 20.2963 22 19.2306 22 18C22 17.835 21.9946 17.6729 21.9841 17.5143C20.1099 17.6208 19.0274 18.3086 17.8672 19.0821L17.7431 19.1649C16.6377 19.9033 15.4065 20.7258 13.5019 20.9443C13.3636 21.322 13.1984 21.6761 13.0085 22ZM16.7578 17.4179C17.957 16.6185 19.3244 15.7403 21.545 15.5415C21.46 15.3368 21.3656 15.1486 21.2638 14.979C20.8171 14.2344 20.3392 14 20 14L13.0085 14C13.641 15.0788 14 16.4926 14 18C14 18.2829 13.9874 18.5625 13.9626 18.8373C15.0074 18.5856 15.7834 18.0679 16.682 17.4685L16.7578 17.4179ZM10 22C10.3392 22 10.8171 21.7656 11.2638 21.021C11.6986 20.2963 12 19.2306 12 18C12 16.7694 11.6986 15.7037 11.2638 14.979C10.8174 14.2349 10.3398 14.0003 10.0007 14H9.99927C9.66015 14.0003 9.18262 14.2349 8.73617 14.979C8.30135 15.7037 8 16.7694 8 18C8 19.2306 8.30135 20.2963 8.73617 21.021C9.18293 21.7656 9.66083 22 10 22ZM4 22C4.33917 22 4.81707 21.7656 5.26383 21.021C5.69865 20.2963 6 19.2306 6 18C6 16.7694 5.69865 15.7037 5.26383 14.979C4.81707 14.2344 4.33917 14 4 14C3.66083 14 3.18293 14.2344 2.73617 14.979C2.30135 15.7037 2 16.7694 2 18C2 19.2306 2.30135 20.2963 2.73617 21.021C3.18293 21.7656 3.66083 22 4 22Z" fill="#DC2626"/>
</svg>
