<svg width="24" height="24" viewBox="0 0 24 24" fill="none" xmlns="http://www.w3.org/2000/svg">
<path fill-rule="evenodd" clip-rule="evenodd" d="M5.33333 4.33333C5.33333 2.49238 6.82572 1 8.66667 1H15.3333C17.1743 1 18.6667 2.49238 18.6667 4.33333V6.44444H19.7778C21.6187 6.44444 23.1111 7.93683 23.1111 9.77778V18.6667C23.1111 20.5076 21.6187 22 19.7778 22H4.22222C2.38127 22 0.888889 20.5076 0.888889 18.6667V9.77778C0.888889 7.93683 2.38127 6.44444 4.22222 6.44444H5.33333V4.33333ZM7.55556 6.44444H16.4444V4.33333C16.4444 3.71968 15.947 3.22222 15.3333 3.22222H8.66667C8.05302 3.22222 7.55556 3.71968 7.55556 4.33333V6.44444ZM4.22222 8.66667C3.60857 8.66667 3.11111 9.16413 3.11111 9.77778V18.6667C3.11111 19.2803 3.60857 19.7778 4.22222 19.7778H19.7778C20.3914 19.7778 20.8889 19.2803 20.8889 18.6667V9.77778C20.8889 9.16413 20.3914 8.66667 19.7778 8.66667H4.22222Z" fill="#DC2626"/>
</svg>
